<?xml version="1.0" standalone="no"?>
<!DOCTYPE svg PUBLIC "-//W3C//DTD SVG 20010904//EN"
 "http://www.w3.org/TR/2001/REC-SVG-20010904/DTD/svg10.dtd">
<svg version="1.0" xmlns="http://www.w3.org/2000/svg"
 width="500.000000pt" height="500.000000pt" viewBox="0 0 500.000000 500.000000"
 preserveAspectRatio="xMidYMid meet">

<g transform="translate(0.000000,500.000000) scale(0.100000,-0.100000)"
fill="#000000" stroke="none">
<path d="M0 2500 l0 -2500 2500 0 2500 0 0 2500 0 2500 -2500 0 -2500 0 0
-2500z m2396 1986 c3 -7 -8 -27 -24 -43 -58 -57 -56 -16 -62 -1223 -6 -1018
-8 -1121 -24 -1190 -59 -250 -201 -434 -411 -535 -101 -48 -136 -60 -250 -80
-105 -20 -155 -20 -155 0 0 15 14 20 92 30 26 3 79 22 117 41 175 87 300 316
341 620 8 65 10 383 8 1164 l-3 1075 -27 58 c-15 31 -32 57 -37 57 -6 0 -11 9
-11 20 0 19 7 20 220 20 177 0 222 -3 226 -14z m654 -1059 c0 -7 758 -2213
793 -2307 77 -209 144 -339 182 -353 8 -4 15 -13 15 -22 0 -13 -30 -15 -225
-15 l-225 0 6 73 c14 176 -103 531 -246 743 -150 221 -365 363 -590 389 -72 9
-198 -9 -261 -36 -99 -43 -110 -64 -247 -475 -121 -366 -151 -474 -152 -547 0
-56 23 -103 54 -111 14 -3 26 -13 26 -21 0 -13 -26 -15 -165 -15 -134 0 -165
3 -165 14 0 7 14 19 30 26 58 24 133 133 200 287 44 104 740 2136 740 2163 0
10 -15 61 -33 114 l-34 96 149 0 c81 0 148 -2 148 -3z"/>
<path d="M2629 2527 c-119 -348 -215 -633 -214 -635 1 -1 24 10 50 24 165 93
429 61 638 -76 87 -56 187 -152 252 -240 26 -36 46 -56 43 -45 -7 25 -547
1598 -551 1601 -1 1 -99 -282 -218 -629z"/>
</g>
</svg>
